<?xml version="1.0" encoding="utf-8"?>
<!-- Generator: Adobe Illustrator 21.1.0, SVG Export Plug-In . SVG Version: 6.00 Build 0)  -->
<svg version="1.1" id="Layer_1" xmlns="http://www.w3.org/2000/svg" xmlns:xlink="http://www.w3.org/1999/xlink" x="0px" y="0px"
	 viewBox="0 0 53.2 75" style="enable-background:new 0 0 53.2 75;" xml:space="preserve">
<style type="text/css">
	.st0{fill:none;stroke:#010202;stroke-width:1.9843;stroke-linecap:round;stroke-miterlimit:10;}
	.st1{fill:#FFFFFF;stroke:#010202;stroke-miterlimit:10;}
	.st2{fill:none;stroke:#010202;stroke-width:1.9843;stroke-linecap:round;stroke-linejoin:round;stroke-miterlimit:10;}
	.st3{fill:none;stroke:#FFFFFF;stroke-miterlimit:10;}
	.st4{fill:none;stroke:#010202;stroke-width:1.9843;stroke-miterlimit:10;}
	.st5{fill:#FFFFFF;stroke:#010202;stroke-linecap:round;stroke-miterlimit:10;}
	.st6{fill:none;stroke:#010202;stroke-linecap:round;stroke-miterlimit:10;}
</style>
<g>
	<path class="st0" d="M51.9,14.3v54.9c0,2.6-2.1,4.7-4.7,4.7H5.9c-2.6,0-4.6-2.1-4.6-4.7V14.3c0-2.6,2.1-4.6,4.6-4.6h16.8v2.2h-5.6
		v4.5H6.6v50.7h40V16.4H36.3v-4.5h-5.6V9.7h16.5C49.8,9.7,51.9,11.8,51.9,14.3z"/>
	<polygon class="st0" points="46.6,16.4 46.6,67.1 6.6,67.1 6.6,16.4 17.1,16.4 17.1,19.7 36.3,19.7 36.3,16.4 	"/>
	<path class="st0" d="M30.7,11.9V5.8c0-2.4-1.8-4.4-4-4.4c-2.2,0-4,2-4,4.4v6.1h-5.6v7.8h19.2v-7.8H30.7z M28.2,6.9
		c0,0.7-0.6,1.3-1.3,1.3s-1.3-0.6-1.3-1.3V5.8c0-0.7,0.6-1.3,1.3-1.3s1.3,0.6,1.3,1.3V6.9z"/>
	<path class="st0" d="M28.2,5.8v1.1c0,0.7-0.6,1.3-1.3,1.3s-1.3-0.6-1.3-1.3V5.8c0-0.7,0.6-1.3,1.3-1.3S28.2,5.1,28.2,5.8z"/>
	<path class="st0" d="M28.2,5.8v1.1c0,0.7-0.6,1.3-1.3,1.3s-1.3-0.6-1.3-1.3V5.8c0-0.7,0.6-1.3,1.3-1.3S28.2,5.1,28.2,5.8z"/>
	<line class="st0" x1="14.5" y1="31.2" x2="39.2" y2="31.2"/>
	<line class="st0" x1="14.5" y1="39" x2="39.2" y2="39"/>
	<line class="st0" x1="14.5" y1="46.7" x2="39.2" y2="46.7"/>
	<line class="st0" x1="14.5" y1="54.5" x2="28.9" y2="54.5"/>
</g>
</svg>
