<?xml version="1.0" encoding="utf-8"?>
<!-- Generator: Adobe Illustrator 21.1.0, SVG Export Plug-In . SVG Version: 6.00 Build 0)  -->
<svg version="1.1" id="Layer_1" xmlns="http://www.w3.org/2000/svg" xmlns:xlink="http://www.w3.org/1999/xlink" x="0px" y="0px"
	 viewBox="0 0 76.6 81.7" style="enable-background:new 0 0 76.6 81.7;" xml:space="preserve">
<style type="text/css">
	.st0{fill:#FFFFFF;stroke:#010202;stroke-miterlimit:10;}
	.st1{fill:#FFFFFF;stroke:#010202;stroke-width:1.9843;stroke-linecap:round;stroke-linejoin:round;stroke-miterlimit:10;}
	.st2{fill:none;stroke:#010202;stroke-width:1.9843;stroke-linecap:round;stroke-linejoin:round;stroke-miterlimit:10;}
	.st3{fill:#383838;stroke:#010202;stroke-width:1.9843;stroke-linecap:round;stroke-linejoin:round;stroke-miterlimit:10;}
	.st4{fill:none;stroke:#FFFFFF;stroke-miterlimit:10;}
	.st5{fill:#FFFFFF;stroke:#010202;stroke-linecap:round;stroke-miterlimit:10;}
	.st6{fill:none;stroke:#010202;stroke-linecap:round;stroke-miterlimit:10;}
	.st7{fill:none;stroke:#010202;stroke-width:1.9843;stroke-linecap:round;stroke-miterlimit:10;}
</style>
<g>
	<path class="st1" d="M51.6,1.1v15.2H21.5c-3.8,0-6.9,3.1-6.9,6.9v34.6H1.1V1.1H51.6z"/>
	<path class="st2" d="M26.2,43.6v1.8c0,0.8-0.6,1.5-1.4,1.5H23c-0.8,0-1.5-0.7-1.5-1.5v-1.8c0-0.8,0.7-1.5,1.5-1.5h1.8
		C25.6,42.1,26.2,42.8,26.2,43.6z"/>
	<path class="st2" d="M26.2,52.2V54c0,0.8-0.6,1.5-1.4,1.5H23c-0.8,0-1.5-0.6-1.5-1.5v-1.8c0-0.8,0.7-1.4,1.5-1.4h1.8
		C25.6,50.8,26.2,51.4,26.2,52.2z"/>
	<path class="st2" d="M35.2,43.6v1.8c0,0.8-0.6,1.5-1.5,1.5H32c-0.8,0-1.5-0.7-1.5-1.5v-1.8c0-0.8,0.7-1.5,1.5-1.5h1.8
		C34.5,42.1,35.2,42.8,35.2,43.6z"/>
	<path class="st2" d="M35.2,52.2V54c0,0.8-0.6,1.5-1.5,1.5H32c-0.8,0-1.5-0.6-1.5-1.5v-1.8c0-0.8,0.7-1.4,1.5-1.4h1.8
		C34.5,50.8,35.2,51.4,35.2,52.2z"/>
	<path class="st2" d="M39.4,45.3v-1.8c0-0.8,0.7-1.5,1.5-1.5h1.8c0.8,0,1.5,0.7,1.5,1.5v1.8c0,0.8-0.6,1.5-1.5,1.5h-1.8
		C40.1,46.8,39.4,46.1,39.4,45.3z"/>
	<path class="st2" d="M42.6,55.5h-1.8c-0.8,0-1.5-0.6-1.5-1.5v-1.8c0-0.8,0.7-1.4,1.5-1.4h1.8c0.8,0,1.5,0.6,1.5,1.4V54
		C44.1,54.8,43.5,55.5,42.6,55.5z"/>
	<path class="st2" d="M49.6,50.8L48.4,52C48.5,51.4,49,50.9,49.6,50.8z"/>
	<path class="st2" d="M53,43.6v1.8c0,0.8-0.6,1.4-1.4,1.5c0,0,0,0-0.1,0h-1.8c-0.8,0-1.5-0.7-1.5-1.5v-1.8c0-0.8,0.7-1.5,1.5-1.5
		h1.8c0,0,0,0,0.1,0C52.4,42.2,53,42.8,53,43.6z"/>
	<path class="st3" d="M53,16.4H21.5c-3.8,0-6.9,3.1-6.9,6.9v41c0,3.8,3.1,6.9,6.9,6.9h7.8l3.1-3.1l7.1-7.1v-0.1
		c0-0.8,0.7-1.5,1.5-1.5H41l1.6-1.6l5.9-5.9c0.1-0.6,0.6-1.1,1.2-1.2l2.1-2l8.3-8.3V23.2C59.9,19.5,56.8,16.4,53,16.4z M26.2,62.7
		c0,0.8-0.6,1.5-1.4,1.5H23c-0.8,0-1.5-0.6-1.5-1.5v-1.8c0-0.8,0.7-1.5,1.5-1.5h1.8c0.8,0,1.4,0.7,1.4,1.5V62.7z M26.2,54
		c0,0.8-0.6,1.5-1.4,1.5H23c-0.8,0-1.5-0.6-1.5-1.5v-1.8c0-0.8,0.7-1.4,1.5-1.4h1.8c0.8,0,1.4,0.6,1.4,1.4V54z M26.2,45.3
		c0,0.8-0.6,1.5-1.4,1.5H23c-0.8,0-1.5-0.7-1.5-1.5v-1.8c0-0.8,0.7-1.5,1.5-1.5h1.8c0.8,0,1.4,0.7,1.4,1.5V45.3z M35.2,62.7
		c0,0.8-0.6,1.5-1.5,1.5H32c-0.8,0-1.5-0.6-1.5-1.5v-1.8c0-0.8,0.7-1.5,1.5-1.5h1.8c0.8,0,1.5,0.7,1.5,1.5V62.7z M35.2,54
		c0,0.8-0.6,1.5-1.5,1.5H32c-0.8,0-1.5-0.6-1.5-1.5v-1.8c0-0.8,0.7-1.4,1.5-1.4h1.8c0.8,0,1.5,0.6,1.5,1.4V54z M35.2,45.3
		c0,0.8-0.6,1.5-1.5,1.5H32c-0.8,0-1.5-0.7-1.5-1.5v-1.8c0-0.8,0.7-1.5,1.5-1.5h1.8c0.8,0,1.5,0.7,1.5,1.5V45.3z M44.1,54
		c0,0.8-0.6,1.5-1.5,1.5h-1.8c-0.8,0-1.5-0.6-1.5-1.5v-1.8c0-0.8,0.7-1.4,1.5-1.4h1.8c0.8,0,1.5,0.6,1.5,1.4V54z M44.1,45.3
		c0,0.8-0.6,1.5-1.5,1.5h-1.8c-0.8,0-1.5-0.7-1.5-1.5v-1.8c0-0.8,0.7-1.5,1.5-1.5h1.8c0.8,0,1.5,0.7,1.5,1.5V45.3z M53,45.3
		c0,0.8-0.6,1.4-1.4,1.5c0,0,0,0-0.1,0h-1.8c-0.8,0-1.5-0.7-1.5-1.5v-1.8c0-0.8,0.7-1.5,1.5-1.5h1.8c0,0,0,0,0.1,0
		c0.8,0,1.4,0.7,1.4,1.5V45.3z M55.4,33.3c0,0.6-0.5,1.2-1.2,1.2H20.9c-0.6,0-1.2-0.5-1.2-1.2v-7.5c0-0.7,0.5-1.2,1.2-1.2h33.3
		c0.7,0,1.2,0.5,1.2,1.2V33.3z"/>
	<path class="st2" d="M26.2,43.6v1.8c0,0.8-0.6,1.5-1.4,1.5H23c-0.8,0-1.5-0.7-1.5-1.5v-1.8c0-0.8,0.7-1.5,1.5-1.5h1.8
		C25.6,42.1,26.2,42.8,26.2,43.6z"/>
	<path class="st2" d="M26.2,52.2V54c0,0.8-0.6,1.5-1.4,1.5H23c-0.8,0-1.5-0.6-1.5-1.5v-1.8c0-0.8,0.7-1.4,1.5-1.4h1.8
		C25.6,50.8,26.2,51.4,26.2,52.2z"/>
	<path class="st2" d="M26.2,60.9v1.8c0,0.8-0.6,1.5-1.4,1.5H23c-0.8,0-1.5-0.6-1.5-1.5v-1.8c0-0.8,0.7-1.5,1.5-1.5h1.8
		C25.6,59.5,26.2,60.1,26.2,60.9z"/>
	<path class="st2" d="M35.2,45.3c0,0.8-0.6,1.5-1.5,1.5H32c-0.8,0-1.5-0.7-1.5-1.5v-1.8c0-0.8,0.7-1.5,1.5-1.5h1.8
		c0.8,0,1.5,0.7,1.5,1.5V45.3z"/>
	<path class="st2" d="M35.2,54c0,0.8-0.6,1.5-1.5,1.5H32c-0.8,0-1.5-0.6-1.5-1.5v-1.8c0-0.8,0.7-1.4,1.5-1.4h1.8
		c0.8,0,1.5,0.6,1.5,1.4V54z"/>
	<path class="st2" d="M35.2,60.9v1.8c0,0.8-0.6,1.5-1.5,1.5H32c-0.8,0-1.5-0.6-1.5-1.5v-1.8c0-0.8,0.7-1.5,1.5-1.5h1.8
		C34.5,59.5,35.2,60.1,35.2,60.9z"/>
	<path class="st2" d="M44.1,45.3c0,0.8-0.6,1.5-1.5,1.5h-1.8c-0.8,0-1.5-0.7-1.5-1.5v-1.8c0-0.8,0.7-1.5,1.5-1.5h1.8
		c0.8,0,1.5,0.7,1.5,1.5V45.3z"/>
	<path class="st2" d="M44.1,52.2V54c0,0.8-0.6,1.5-1.5,1.5h-1.8c-0.8,0-1.5-0.6-1.5-1.5v-1.8c0-0.8,0.7-1.4,1.5-1.4h1.8
		C43.5,50.8,44.1,51.4,44.1,52.2z"/>
	<path class="st3" d="M59.9,53.2v11.1c0,3.8-3.1,6.9-6.9,6.9H41.9l7.2-7.2c0.2,0.1,0.5,0.2,0.7,0.2h1.8c0.8,0,1.5-0.6,1.5-1.5v-1.8
		c0-0.3-0.1-0.5-0.2-0.7L59.9,53.2z"/>
	<path class="st2" d="M53,60.9v1.8c0,0.8-0.7,1.5-1.5,1.5h-1.8c-0.3,0-0.5-0.1-0.7-0.2l3.7-3.7C53,60.4,53,60.7,53,60.9z"/>
	<path class="st2" d="M40.9,59.5L40.9,59.5L39.4,61v-0.1C39.4,60.1,40.1,59.5,40.9,59.5z"/>
	<path class="st2" d="M49.6,50.8L48.4,52C48.5,51.4,49,50.9,49.6,50.8z"/>
	<path class="st1" d="M55.4,25.8v7.5c0,0.6-0.5,1.2-1.2,1.2H20.9c-0.6,0-1.2-0.5-1.2-1.2v-7.5c0-0.7,0.5-1.2,1.2-1.2h33.3
		C54.9,24.6,55.4,25.1,55.4,25.8z"/>
	<g>
		<path class="st1" d="M26.2,43.6v1.8c0,0.8-0.6,1.5-1.4,1.5H23c-0.8,0-1.5-0.7-1.5-1.5v-1.8c0-0.8,0.7-1.5,1.5-1.5h1.8
			C25.6,42.1,26.2,42.8,26.2,43.6z"/>
		<path class="st1" d="M35.2,43.6v1.8c0,0.8-0.6,1.5-1.5,1.5H32c-0.8,0-1.5-0.7-1.5-1.5v-1.8c0-0.8,0.7-1.5,1.5-1.5h1.8
			C34.5,42.1,35.2,42.8,35.2,43.6z"/>
		<path class="st1" d="M44.1,43.6v1.8c0,0.8-0.6,1.5-1.5,1.5h-1.8c-0.8,0-1.5-0.7-1.5-1.5v-1.8c0-0.8,0.7-1.5,1.5-1.5h1.8
			C43.5,42.1,44.1,42.8,44.1,43.6z"/>
		<path class="st1" d="M26.2,52.2V54c0,0.8-0.6,1.5-1.4,1.5H23c-0.8,0-1.5-0.6-1.5-1.5v-1.8c0-0.8,0.7-1.4,1.5-1.4h1.8
			C25.6,50.8,26.2,51.4,26.2,52.2z"/>
		<path class="st1" d="M35.2,52.2V54c0,0.8-0.6,1.5-1.5,1.5H32c-0.8,0-1.5-0.6-1.5-1.5v-1.8c0-0.8,0.7-1.4,1.5-1.4h1.8
			C34.5,50.8,35.2,51.4,35.2,52.2z"/>
		<path class="st1" d="M44.1,52.2V54c0,0.8-0.6,1.5-1.5,1.5h-1.8c-0.8,0-1.5-0.6-1.5-1.5v-1.8c0-0.8,0.7-1.4,1.5-1.4h1.8
			C43.5,50.8,44.1,51.4,44.1,52.2z"/>
		<path class="st2" d="M49.6,50.8L48.4,52C48.5,51.4,49,50.9,49.6,50.8z"/>
		<path class="st1" d="M26.2,60.9v1.8c0,0.8-0.6,1.5-1.4,1.5H23c-0.8,0-1.5-0.6-1.5-1.5v-1.8c0-0.8,0.7-1.5,1.5-1.5h1.8
			C25.6,59.5,26.2,60.1,26.2,60.9z"/>
		<path class="st1" d="M35.2,60.9v1.8c0,0.8-0.6,1.5-1.5,1.5H32c-0.8,0-1.5-0.6-1.5-1.5v-1.8c0-0.8,0.7-1.5,1.5-1.5h1.8
			C34.5,59.5,35.2,60.1,35.2,60.9z"/>
		<path class="st2" d="M41,59.5L39.4,61v-0.1C39.4,60.1,40.1,59.5,41,59.5L41,59.5z"/>
		<path class="st1" d="M53,60.9v1.8c0,0.8-0.7,1.5-1.5,1.5h-1.8c-0.3,0-0.5-0.1-0.7-0.2l3.7-3.7C53,60.4,53,60.7,53,60.9z"/>
		<path class="st1" d="M53,43.6v1.8c0,0.8-0.6,1.5-1.5,1.5h-1.8c-0.8,0-1.5-0.7-1.5-1.5v-1.8c0-0.8,0.7-1.5,1.5-1.5h1.8
			C52.4,42.1,53,42.8,53,43.6z"/>
	</g>
	<line class="st2" x1="19.7" y1="38.4" x2="55.4" y2="38.4"/>
	<line class="st2" x1="7.1" y1="7.9" x2="7.1" y2="46.8"/>
	<line class="st2" x1="43.8" y1="12.3" x2="10.8" y2="12.3"/>
	<g>
		<polygon class="st1" points="75.5,31.2 71.6,41.5 68.2,38.1 65.3,35.1 		"/>
		<polygon class="st3" points="68.2,38.1 59.9,46.4 53,53.3 51.6,54.7 50.9,55.5 48.4,57.9 44.1,62.2 42.2,64.1 35.2,71.1 32.4,68 
			39.4,61 41,59.5 42.5,57.9 48.4,52 49.6,50.8 51.6,48.8 59.9,40.5 65.3,35.1 		"/>
		<polygon class="st3" points="38.5,74.5 32.5,80.5 26.2,74.2 29.3,71.1 32.4,68 35.2,71.1 35.3,71.1 		"/>
		<polygon class="st3" points="71.6,41.5 59.9,53.2 52.8,60.2 49.1,63.9 41.9,71.1 38.5,74.5 35.3,71.1 35.2,71.1 42.2,64.1 
			44.1,62.2 48.4,57.9 50.9,55.5 51.6,54.7 53,53.3 59.9,46.4 68.2,38.1 		"/>
	</g>
</g>
</svg>
