<?xml version="1.0" encoding="utf-8"?>
<!-- Generator: Adobe Illustrator 21.1.0, SVG Export Plug-In . SVG Version: 6.00 Build 0)  -->
<svg version="1.1" id="Layer_1" xmlns="http://www.w3.org/2000/svg" xmlns:xlink="http://www.w3.org/1999/xlink" x="0px" y="0px"
	 viewBox="0 0 60.1 83.2" style="enable-background:new 0 0 60.1 83.2;" xml:space="preserve">
<style type="text/css">
	.st0{fill:none;stroke:#010202;stroke-width:1.9843;stroke-linecap:round;stroke-miterlimit:10;}
	.st1{fill:#FFFFFF;stroke:#010202;stroke-miterlimit:10;}
	.st2{fill:none;stroke:#010202;stroke-width:1.9843;stroke-linecap:round;stroke-linejoin:round;stroke-miterlimit:10;}
	.st3{fill:none;stroke:#FFFFFF;stroke-miterlimit:10;}
	.st4{fill:none;stroke:#010202;stroke-width:1.9843;stroke-miterlimit:10;}
	.st5{fill:#FFFFFF;stroke:#010202;stroke-linecap:round;stroke-miterlimit:10;}
	.st6{fill:none;stroke:#010202;stroke-linecap:round;stroke-miterlimit:10;}
</style>
<g>
	<path class="st2" d="M58.7,29.9c0,14.6-10.8,26.6-24.8,28.4v-9.6h2.7v-8h2.8v-19h4.8c1.4,0,2.6-0.5,3.5-1.5
		c0.9-0.9,1.4-2.1,1.4-3.5c0-2.7-2.2-4.9-4.9-4.9H15.8c-1.4,0-2.6,0.5-3.5,1.5c-0.9,0.9-1.5,2.1-1.5,3.5c0,2.7,2.2,4.9,4.9,4.9h4.8
		v19h2.8v8h2.7v9.6c-14-1.9-24.8-13.9-24.8-28.4C1.3,14.1,14.1,1.2,30,1.2C45.8,1.2,58.7,14.1,58.7,29.9z"/>
	<path class="st2" d="M49.1,16.8c0,1.4-0.5,2.6-1.4,3.5c-0.9,0.9-2.1,1.5-3.5,1.5H15.8c-2.7,0-4.9-2.2-4.9-4.9
		c0-1.4,0.6-2.6,1.5-3.5c0.9-0.9,2.1-1.5,3.5-1.5h28.4C46.9,11.9,49.1,14.1,49.1,16.8z"/>
	<rect x="20.6" y="21.8" class="st2" width="18.7" height="19"/>
	<rect x="23.4" y="40.8" class="st2" width="13.2" height="8"/>
	<polygon class="st2" points="33.9,48.7 33.9,50.1 26.1,56 26.1,48.7 	"/>
	<polygon class="st2" points="33.9,54 33.9,57.7 32.7,58.5 26.1,63.5 26.1,59.8 27.8,58.5 	"/>
	<polygon class="st2" points="33.9,50.1 33.9,54 27.8,58.5 26.1,59.8 26.1,56 	"/>
	<polygon class="st2" points="33.9,57.7 33.9,61.5 26.1,67.4 26.1,63.5 32.7,58.5 	"/>
	<polygon class="st2" points="33.9,61.5 33.9,64.8 26.1,70.7 26.1,67.4 	"/>
	<polygon class="st2" points="33.9,64.8 33.9,68.7 26.1,74.5 26.1,70.7 	"/>
	<polygon class="st2" points="33.9,68.7 33.9,72.4 26.3,78 26.1,77.8 26.1,74.5 	"/>
	<polygon class="st2" points="33.9,72.4 33.9,77.8 30,82.1 26.3,78 	"/>
	<line class="st2" x1="15.3" y1="16.4" x2="44.9" y2="16.4"/>
	<line class="st2" x1="36.6" y1="32.8" x2="36.6" y2="21.8"/>
	<line class="st2" x1="22.4" y1="36.5" x2="37" y2="36.5"/>
	<line class="st2" x1="29.7" y1="46.5" x2="33.9" y2="46.5"/>
</g>
</svg>
