<?xml version="1.0" encoding="utf-8"?>
<!-- Generator: Adobe Illustrator 21.1.0, SVG Export Plug-In . SVG Version: 6.00 Build 0)  -->
<svg version="1.1" id="Layer_1" xmlns="http://www.w3.org/2000/svg" xmlns:xlink="http://www.w3.org/1999/xlink" x="0px" y="0px"
	 viewBox="0 0 70.2 71" style="enable-background:new 0 0 70.2 71;" xml:space="preserve">
<style type="text/css">
	.st0{fill:none;stroke:#010202;stroke-width:1.9843;stroke-linecap:round;stroke-miterlimit:10;}
	.st1{fill:#FFFFFF;stroke:#010202;stroke-miterlimit:10;}
	.st2{fill:none;stroke:#010202;stroke-width:1.9843;stroke-linecap:round;stroke-linejoin:round;stroke-miterlimit:10;}
	.st3{fill:none;stroke:#FFFFFF;stroke-miterlimit:10;}
	.st4{fill:none;stroke:#010202;stroke-width:1.9843;stroke-miterlimit:10;}
	.st5{fill:#FFFFFF;stroke:#010202;stroke-linecap:round;stroke-miterlimit:10;}
	.st6{fill:none;stroke:#010202;stroke-linecap:round;stroke-miterlimit:10;}
</style>
<path class="st0" d="M47.4,59.1V18.8H1.2v51h57C52.2,69.8,47.4,65,47.4,59.1z M41.2,47.3l-3.3,2.4l-0.6,1.7l0.5,3.1l-3,2.8l-2.4-0.8
	l-2.9,0.8L28,59.5h-4.4l-1.7-2.7l-2.4-1.1l-3.6,0.7l-2.3-2.3l0.4-3.4l-1.8-2.4l-2.3-2v-4l3.3-1.9L13,35.1l3.4-3.1l3.6,1.3l2-0.9
	l2-3.2h3.6l1.7,3l2.5,1.1l3.1-0.7l3,2.5l-0.8,3.7l0.8,2.5l3.3,1.7V47.3z"/>
<path class="st0" d="M37.9,41.3l-0.8-2.5l0.8-3.7l-3-2.5l-3.1,0.7l-2.5-1.1l-1.7-3H24l-2,3.2l-2,0.9L16.4,32L13,35.1l0.1,5.1
	l-3.3,1.9v4l2.3,2l1.8,2.4l-0.4,3.4l2.3,2.3l3.6-0.7l2.4,1.1l1.7,2.7H28l1.5-2.2l2.9-0.8l2.4,0.8l3-2.8l-0.5-3.1l0.6-1.7l3.3-2.4
	v-4.3L37.9,41.3z M25.5,48.6c-2.4,0-4.3-1.9-4.3-4.3c0-2.4,1.9-4.3,4.3-4.3c2.4,0,4.3,1.9,4.3,4.3C29.8,46.7,27.9,48.6,25.5,48.6z"
	/>
<path class="st4" d="M58.2,48.3c-5.9,0-10.8,4.8-10.8,10.8c0,5.9,4.8,10.7,10.8,10.7S68.9,65,68.9,59.1
	C68.9,53.1,64.1,48.3,58.2,48.3z M58.2,61.6c-1.4,0-2.5-1.1-2.5-2.5c0-1.4,1.1-2.5,2.5-2.5s2.5,1.1,2.5,2.5
	C60.7,60.5,59.6,61.6,58.2,61.6z"/>
<path class="st4" d="M68.9,12.6v46.5c0-5.9-4.8-10.8-10.7-10.8s-10.8,4.8-10.8,10.8V12.6c0-5.9,4.8-10.8,10.8-10.8
	S68.9,6.6,68.9,12.6z"/>
<path class="st4" d="M60.7,59.1c0,1.4-1.1,2.5-2.5,2.5s-2.5-1.1-2.5-2.5c0-1.4,1.1-2.5,2.5-2.5S60.7,57.7,60.7,59.1z"/>
<path class="st4" d="M29.8,44.3c0,2.4-1.9,4.3-4.3,4.3c-2.4,0-4.3-1.9-4.3-4.3c0-2.4,1.9-4.3,4.3-4.3C27.9,40,29.8,41.9,29.8,44.3z"
	/>
</svg>
